<svg width="48" height="48" viewBox="0 0 48 48" fill="none" xmlns="http://www.w3.org/2000/svg">
<g clip-path="url(#clip0_356_125)">
<path d="M40.635 8.98395C37.575 7.60395 34.295 6.58395 30.865 6.00395C30.8344 5.99808 30.8028 6.00186 30.7745 6.01476C30.7462 6.02766 30.7226 6.04904 30.707 6.07595C30.287 6.81395 29.819 7.77595 29.491 8.53595C25.8532 7.99242 22.1548 7.99242 18.517 8.53595C18.1516 7.69367 17.7397 6.8724 17.283 6.07595C17.2675 6.04871 17.2441 6.02685 17.2158 6.01327C17.1876 5.99969 17.1559 5.99504 17.125 5.99995C13.697 6.57995 10.417 7.59995 7.35496 8.98195C7.32862 8.993 7.30629 9.01184 7.29096 9.03595C1.06696 18.1859 -0.639039 27.1099 0.198961 35.9219C0.201293 35.9435 0.207992 35.9644 0.218651 35.9833C0.22931 36.0022 0.243705 36.0188 0.260961 36.0319C3.89375 38.6768 7.94563 40.6916 12.247 41.9919C12.2769 42.0012 12.309 42.0012 12.339 41.9919C12.369 41.9826 12.3954 41.9645 12.415 41.9399C13.339 40.6999 14.163 39.3899 14.867 38.0139C14.909 37.9339 14.869 37.8379 14.785 37.8059C13.493 37.3194 12.2411 36.7323 11.041 36.0499C11.0194 36.0376 11.0012 36.0202 10.9881 35.9991C10.9749 35.978 10.9672 35.954 10.9656 35.9293C10.964 35.9045 10.9686 35.8797 10.979 35.8571C10.9893 35.8346 11.0051 35.8149 11.025 35.7999C11.277 35.6139 11.529 35.4199 11.769 35.2259C11.7906 35.2085 11.8166 35.1974 11.8441 35.1939C11.8717 35.1903 11.8997 35.1945 11.925 35.2059C19.779 38.7339 28.285 38.7339 36.047 35.2059C36.0723 35.1938 36.1006 35.1891 36.1285 35.1923C36.1565 35.1955 36.183 35.2064 36.205 35.2239C36.445 35.4199 36.695 35.6139 36.949 35.7999C36.969 35.8146 36.985 35.834 36.9957 35.8563C37.0064 35.8787 37.0114 35.9034 37.0102 35.9282C37.009 35.9529 37.0017 35.977 36.9889 35.9983C36.9761 36.0195 36.9583 36.0373 36.937 36.0499C35.741 36.7379 34.497 37.3199 33.191 37.8039C33.1709 37.8112 33.1526 37.8227 33.1374 37.8376C33.1221 37.8525 33.1102 37.8705 33.1024 37.8904C33.0947 37.9103 33.0912 37.9316 33.0924 37.9529C33.0935 37.9742 33.0991 37.995 33.109 38.0139C33.829 39.3879 34.653 40.6959 35.559 41.9379C35.5778 41.9634 35.604 41.9825 35.6341 41.9925C35.6642 42.0025 35.6966 42.003 35.727 41.9939C40.0357 40.6972 44.0942 38.6815 47.731 36.0319C47.7487 36.0195 47.7636 36.0035 47.7746 35.9849C47.7857 35.9662 47.7926 35.9455 47.795 35.9239C48.795 25.7359 46.119 16.8839 40.697 9.03995C40.6837 9.01446 40.6617 8.99458 40.635 8.98395ZM16.041 30.5559C13.677 30.5559 11.727 28.4179 11.727 25.7959C11.727 23.1719 13.639 21.0359 16.041 21.0359C18.461 21.0359 20.393 23.1899 20.355 25.7959C20.355 28.4199 18.443 30.5559 16.041 30.5559ZM31.991 30.5559C29.625 30.5559 27.677 28.4179 27.677 25.7959C27.677 23.1719 29.587 21.0359 31.991 21.0359C34.411 21.0359 36.343 23.1899 36.305 25.7959C36.305 28.4199 34.413 30.5559 31.991 30.5559Z" fill="#030641"/>
</g>
<defs>
<clipPath id="clip0_356_125">
<rect width="48" height="48" fill="white"/>
</clipPath>
</defs>
</svg>
