<svg width="48" height="48" viewBox="0 0 48 48" fill="none" xmlns="http://www.w3.org/2000/svg">
<path fill-rule="evenodd" clip-rule="evenodd" d="M14.93 2.13224C17.276 2.02424 18.024 2.00024 24 2.00024C29.976 2.00024 30.724 2.02624 33.068 2.13224C35.412 2.23824 37.012 2.61224 38.412 3.15424C39.878 3.70824 41.208 4.57424 42.308 5.69424C43.428 6.79224 44.292 8.12024 44.844 9.58824C45.388 10.9882 45.76 12.5882 45.868 14.9282C45.976 17.2782 46 18.0262 46 24.0002C46 29.9762 45.974 30.7242 45.868 33.0702C45.762 35.4102 45.388 37.0102 44.844 38.4102C44.292 39.8784 43.4266 41.2086 42.308 42.3082C41.208 43.4282 39.878 44.2922 38.412 44.8442C37.012 45.3882 35.412 45.7602 33.072 45.8682C30.724 45.9762 29.976 46.0002 24 46.0002C18.024 46.0002 17.276 45.9742 14.93 45.8682C12.59 45.7622 10.99 45.3882 9.59 44.8442C8.12184 44.2922 6.79164 43.4268 5.692 42.3082C4.57276 41.2096 3.70663 39.88 3.154 38.4122C2.612 37.0122 2.24 35.4122 2.132 33.0722C2.024 30.7222 2 29.9742 2 24.0002C2 18.0242 2.026 17.2762 2.132 14.9322C2.238 12.5882 2.612 10.9882 3.154 9.58824C3.70745 8.12041 4.57424 6.79087 5.694 5.69224C6.79208 4.57325 8.12094 3.70713 9.588 3.15424C10.988 2.61224 12.588 2.24024 14.928 2.13224H14.93ZM32.89 6.09224C30.57 5.98624 29.874 5.96424 24 5.96424C18.126 5.96424 17.43 5.98624 15.11 6.09224C12.964 6.19024 11.8 6.54824 11.024 6.85024C9.998 7.25024 9.264 7.72424 8.494 8.49424C7.76409 9.20435 7.20236 10.0688 6.85 11.0242C6.548 11.8002 6.19 12.9642 6.092 15.1102C5.986 17.4302 5.964 18.1262 5.964 24.0002C5.964 29.8742 5.986 30.5702 6.092 32.8902C6.19 35.0362 6.548 36.2002 6.85 36.9762C7.202 37.9302 7.764 38.7962 8.494 39.5062C9.204 40.2362 10.07 40.7982 11.024 41.1502C11.8 41.4522 12.964 41.8102 15.11 41.9082C17.43 42.0142 18.124 42.0362 24 42.0362C29.876 42.0362 30.57 42.0142 32.89 41.9082C35.036 41.8102 36.2 41.4522 36.976 41.1502C38.002 40.7502 38.736 40.2762 39.506 39.5062C40.236 38.7962 40.798 37.9302 41.15 36.9762C41.452 36.2002 41.81 35.0362 41.908 32.8902C42.014 30.5702 42.036 29.8742 42.036 24.0002C42.036 18.1262 42.014 17.4302 41.908 15.1102C41.81 12.9642 41.452 11.8002 41.15 11.0242C40.75 9.99824 40.276 9.26424 39.506 8.49424C38.7959 7.76439 37.9314 7.20267 36.976 6.85024C36.2 6.54824 35.036 6.19024 32.89 6.09224ZM21.19 30.7822C22.7593 31.4355 24.5068 31.5237 26.1339 31.0317C27.761 30.5397 29.1668 29.4981 30.1112 28.0847C31.0557 26.6714 31.4801 24.974 31.3121 23.2825C31.1441 21.5909 30.394 20.0102 29.19 18.8102C28.4225 18.0432 27.4944 17.4559 26.4727 17.0905C25.4509 16.7252 24.3609 16.591 23.281 16.6975C22.2011 16.804 21.1583 17.1486 20.2276 17.7065C19.2969 18.2644 18.5015 19.0217 17.8986 19.9239C17.2957 20.8262 16.9004 21.8508 16.741 22.9242C16.5817 23.9975 16.6623 25.0928 16.9771 26.1313C17.2919 27.1697 17.833 28.1255 18.5614 28.9297C19.2899 29.7339 20.1876 30.3666 21.19 30.7822ZM16.004 16.0042C17.054 14.9542 18.3006 14.1213 19.6726 13.553C21.0446 12.9847 22.515 12.6922 24 12.6922C25.485 12.6922 26.9554 12.9847 28.3274 13.553C29.6994 14.1212 30.946 14.9542 31.996 16.0042C33.046 17.0543 33.879 18.3009 34.4473 19.6728C35.0156 21.0448 35.3081 22.5152 35.3081 24.0002C35.3081 25.4852 35.0156 26.9557 34.4473 28.3276C33.879 29.6996 33.046 30.9462 31.996 31.9962C29.8753 34.1169 26.9991 35.3083 24 35.3083C21.0009 35.3083 18.1247 34.1169 16.004 31.9962C13.8833 29.8756 12.6919 26.9993 12.6919 24.0002C12.6919 21.0012 13.8833 18.1249 16.004 16.0042ZM37.816 14.3762C38.0762 14.1308 38.2845 13.8356 38.4286 13.5082C38.5727 13.1808 38.6496 12.8278 38.6548 12.4701C38.66 12.1124 38.5934 11.7573 38.459 11.4259C38.3245 11.0944 38.1249 10.7933 37.8719 10.5403C37.619 10.2874 37.3179 10.0878 36.9864 9.95328C36.6549 9.8188 36.2998 9.7522 35.9421 9.75741C35.5845 9.76262 35.2315 9.83955 34.9041 9.98364C34.5766 10.1277 34.2815 10.336 34.036 10.5962C33.5586 11.1023 33.2973 11.7745 33.3074 12.4701C33.3175 13.1657 33.5984 13.83 34.0903 14.3219C34.5822 14.8139 35.2465 15.0947 35.9421 15.1048C36.6378 15.115 37.3099 14.8536 37.816 14.3762Z" fill="currentColor"/>
</svg>
