<svg width="64" height="64" viewBox="0 0 64 64" fill="none" xmlns="http://www.w3.org/2000/svg">
<path opacity="0.5" d="M32 5.33301C26.7258 5.33301 21.5701 6.89698 17.1848 9.82715C12.7995 12.7573 9.38156 16.9221 7.36322 21.7948C5.34488 26.6675 4.81679 32.0293 5.84573 37.2021C6.87467 42.3749 9.41443 47.1265 13.1438 50.8559C16.8732 54.5853 21.6248 57.125 26.7976 58.154C31.9704 59.1829 37.3322 58.6548 42.2049 56.6365C47.0776 54.6181 51.2424 51.2002 54.1725 46.8149C57.1027 42.4296 58.6667 37.2738 58.6667 31.9997C58.6667 28.4978 57.9769 25.0301 56.6368 21.7948C55.2967 18.5594 53.3324 15.6197 50.8562 13.1435C48.38 10.6673 45.4403 8.70301 42.2049 7.36289C38.9696 6.02276 35.5019 5.33301 32 5.33301ZM32 53.333C27.7807 53.333 23.6561 52.0818 20.1478 49.7377C16.6396 47.3936 13.9052 44.0617 12.2906 40.1636C10.6759 36.2654 10.2534 31.976 11.0766 27.8377C11.8997 23.6995 13.9315 19.8983 16.9151 16.9147C19.8986 13.9312 23.6998 11.8994 27.8381 11.0763C31.9763 10.2531 36.2658 10.6756 40.1639 12.2902C44.0621 13.9049 47.3939 16.6393 49.738 20.1475C52.0822 23.6558 53.3333 27.7803 53.3333 31.9997C53.3333 37.6576 51.0857 43.0838 47.085 47.0846C43.0842 51.0854 37.658 53.333 32 53.333Z" fill="white"/>
<path d="M53.3333 31.9997H58.6667C58.6667 28.4978 57.9769 25.0301 56.6368 21.7948C55.2967 18.5594 53.3324 15.6197 50.8562 13.1435C48.38 10.6673 45.4402 8.70301 42.2049 7.36289C38.9695 6.02276 35.5019 5.33301 32 5.33301V10.6663C37.658 10.6663 43.0842 12.914 47.0849 16.9147C51.0857 20.9155 53.3333 26.3417 53.3333 31.9997Z" fill="white"/>
</svg>
