<svg width="48" height="48" viewBox="0 0 48 48" fill="none" xmlns="http://www.w3.org/2000/svg">
<path d="M47.287 9.8744C45.617 10.6144 43.823 11.1144 41.937 11.3404C43.883 10.176 45.3389 8.34333 46.033 6.1844C44.2047 7.27038 42.2037 8.03479 40.117 8.4444C38.7138 6.94613 36.8551 5.95305 34.8297 5.61935C32.8042 5.28564 30.7252 5.62998 28.9155 6.5989C27.1058 7.56783 25.6666 9.10712 24.8213 10.9778C23.9761 12.8485 23.7721 14.9459 24.241 16.9444C20.5364 16.7584 16.9123 15.7955 13.6038 14.1182C10.2954 12.4409 7.37668 10.0867 5.037 7.2084C4.237 8.5884 3.777 10.1884 3.777 11.8924C3.77611 13.4264 4.15387 14.9369 4.87676 16.2899C5.59965 17.6428 6.64532 18.7965 7.921 19.6484C6.44155 19.6013 4.99475 19.2016 3.701 18.4824V18.6024C3.70085 20.7539 4.44507 22.8392 5.80737 24.5044C7.16967 26.1696 9.06614 27.3123 11.175 27.7384C9.80257 28.1098 8.36368 28.1645 6.967 27.8984C7.56199 29.7496 8.72099 31.3685 10.2817 32.5282C11.8425 33.688 13.7268 34.3308 15.671 34.3664C12.3707 36.9572 8.29477 38.3626 4.099 38.3564C3.35576 38.3566 2.61315 38.3132 1.875 38.2264C6.13395 40.9647 11.0917 42.418 16.155 42.4124C33.295 42.4124 42.665 28.2164 42.665 15.9044C42.665 15.5044 42.655 15.1004 42.637 14.7004C44.4596 13.3823 46.0328 11.7502 47.283 9.8804L47.287 9.8744Z" fill="#030641"/>
</svg>
