<svg width="247" height="72" viewBox="0 0 247 72" fill="none" xmlns="http://www.w3.org/2000/svg">
<g clip-path="url(#clip0_222_166)">
<path d="M36 72C55.8822 72 72 55.8822 72 36C72 16.1177 55.8822 0 36 0C16.1177 0 0 16.1177 0 36C0 55.8822 16.1177 72 36 72Z" fill="black"/>
<path d="M51.2292 16.9474H51.2119C51.2119 16.9474 37.6685 5.74587 21.9736 17.3905C21.9736 17.3905 20.2332 18.5934 21.4682 19.9228L21.4751 19.9305C21.7503 19.6519 21.9866 19.4321 22.1675 19.2702C22.3018 19.1533 22.4677 19.0786 22.6443 19.0557C22.8209 19.0328 23.0004 19.0625 23.1601 19.1413C26.5293 20.8064 33.9471 28.36 33.9471 28.36C35.2539 30.3176 34.4759 31.9023 33.8493 32.7115C33.7081 32.8935 33.5243 33.038 33.314 33.132C33.1037 33.226 32.8735 33.2668 32.6437 33.2506L31.5732 33.1745C31.1843 33.1475 30.7944 33.2089 30.4326 33.3539C30.0708 33.499 29.7465 33.7241 29.484 34.0122C26.9421 36.7955 19.4725 44.9714 18.5317 45.9493C17.8619 46.6417 17.8281 47.3912 17.9138 47.8888C17.9839 48.2973 18.2911 48.7733 17.9268 49.264L16.6347 50.8668C16.5646 50.6764 16.4962 50.4878 16.4296 50.2991C15.2777 51.7132 14.4157 52.6116 14.0807 53.4571C13.8975 53.9243 13.8609 54.4362 13.9757 54.9248C14.0906 55.4133 14.3515 55.8553 14.7238 56.1919L17.3712 58.5953C17.6745 58.8711 18.0209 59.0953 18.3967 59.2591C18.498 59.3041 18.601 59.3456 18.7057 59.3794C19.1298 59.5213 19.6793 59.69 20.2384 59.8121C21.0911 60.0052 21.9852 59.8685 22.7413 59.4296C24.3493 58.4923 27.5506 56.5433 29.7159 54.6834C32.7138 52.1139 39.884 46.46 42.4579 44.5196C44.7833 42.7662 50.7593 43.0484 53.8818 42.5239C54.1596 42.4769 54.423 42.3665 54.6514 42.2015C54.8798 42.0364 55.0672 41.821 55.199 41.5719C55.8654 40.3239 57.1393 37.6601 57.688 34.644L58.0861 31.8928C58.0944 31.8355 58.0906 31.7772 58.0748 31.7215C58.0589 31.6659 58.0315 31.6143 57.9944 31.57C57.9572 31.5257 57.911 31.4897 57.859 31.4645C57.8069 31.4393 57.7502 31.4254 57.6923 31.4237H57.3531L47.8591 31.4159C47.6341 30.7556 46.1282 26.2397 52.8311 20.1313C52.9904 19.9859 53.1542 19.84 53.3227 19.6934C53.4263 19.6034 53.4906 19.4764 53.5019 19.3397C53.5132 19.2029 53.4707 19.0671 53.3833 18.9612L52.0306 17.3247C51.9331 17.2066 51.8107 17.1115 51.6721 17.0463C51.5336 16.9811 51.3823 16.9473 51.2292 16.9474Z" fill="white"/>
<path d="M52.8299 20.1324C46.1279 26.2407 47.6329 30.7566 47.8588 31.4161L57.3545 31.4256V31.4161C57.3545 31.4161 56.766 24.5107 52.8299 20.1324Z" fill="white"/>
<path d="M21.008 60.3774C20.7139 60.377 20.4208 60.3442 20.1339 60.2796C19.6005 60.1557 19.0737 60.0052 18.5553 59.8287C18.4376 59.7897 18.3199 59.7421 18.2091 59.6945C17.7842 59.5106 17.3924 59.258 17.0494 58.9468L14.4012 56.5434C13.9577 56.1418 13.6468 55.6148 13.5098 55.0324C13.3711 54.4499 13.4155 53.8388 13.637 53.2824C13.9234 52.5581 14.5111 51.8562 15.3237 50.8852C15.5565 50.6065 15.798 50.3191 16.0576 49.9989L16.1589 49.8752L16.8971 50.4723L16.7941 50.5987C16.5302 50.9232 16.287 51.214 16.0516 51.4944C15.296 52.398 14.7534 53.0522 14.5189 53.6321C14.3721 54.0096 14.3432 54.4227 14.4359 54.8169C14.5286 55.2112 14.7386 55.5681 15.0381 55.8407L17.6907 58.2449C17.9558 58.4859 18.2583 58.682 18.5865 58.8256C18.673 58.8646 18.7665 58.8992 18.8574 58.9303C19.3905 59.1086 19.8907 59.2514 20.3433 59.3544C21.0787 59.5217 21.8502 59.4036 22.5018 59.0238C24.1721 58.0502 27.2903 56.1462 29.4063 54.3279C32.4354 51.7229 39.6956 46.0075 42.1716 44.1407C43.9025 42.8356 47.3505 42.595 50.3934 42.383C51.6708 42.2965 52.8772 42.2099 53.8041 42.0559C54.0101 42.0206 54.2053 41.9388 54.3749 41.8167C54.5445 41.6946 54.6841 41.5355 54.7829 41.3514C55.4649 40.0723 56.6869 37.4915 57.2209 34.5706L57.6077 31.9016H57.3533L47.5184 31.8921L47.4093 31.571C46.9203 30.1369 47.0701 28.6838 47.2821 27.7171C47.5417 26.5401 48.0472 25.3337 48.7897 24.1316C49.6872 22.6776 50.9386 21.2142 52.5111 19.7819C52.673 19.6347 52.8409 19.4841 53.0105 19.337C53.0207 19.3283 53.0272 19.3159 53.0285 19.3025C53.0298 19.2891 53.0258 19.2757 53.0174 19.2652L51.6673 17.6278C51.6147 17.5638 51.5487 17.5123 51.4739 17.4769C51.3991 17.4414 51.3174 17.4229 51.2346 17.4226H51.0468L50.9152 17.3136C50.9075 17.3067 50.0636 16.6152 48.5872 15.7722C46.6243 14.6547 44.5196 13.8073 42.33 13.2529C40.5285 12.7974 38.6779 12.5648 36.8197 12.5606C31.814 12.5606 26.938 14.3027 22.262 17.7723L22.249 17.7809C22.0595 17.9142 21.561 18.3625 21.51 18.8437C21.4831 19.0981 21.5844 19.3457 21.8215 19.6001L21.1292 20.2457C20.5934 19.6693 20.5294 19.1077 20.5701 18.7373C20.6177 18.3045 20.8297 17.8718 21.1932 17.4685C21.3473 17.297 21.5187 17.1418 21.7047 17.0055C23.5181 15.6474 25.4817 14.5024 27.5568 13.593C29.3303 12.8225 31.1899 12.2679 33.0957 11.9409C36.2592 11.4112 39.4985 11.548 42.6061 12.3425C43.8656 12.6604 45.099 13.0741 46.2955 13.5801C47.2566 13.9854 48.1927 14.4478 49.0987 14.9648C49.8993 15.4168 50.6681 15.9228 51.3999 16.4793C51.7941 16.5199 52.1563 16.7143 52.4081 17.0202L53.76 18.6576C53.9264 18.8586 54.0076 19.1168 53.986 19.3769C53.9645 19.637 53.8421 19.8783 53.6449 20.0493C53.4813 20.1921 53.3186 20.3375 53.1619 20.482C50.4167 22.9831 48.7542 25.4851 48.2211 27.9188C48.048 28.6934 47.9243 29.8184 48.2211 30.9418L57.3646 30.9513H57.7185C57.8431 30.9552 57.9654 30.9853 58.0775 31.0396C58.1896 31.094 58.289 31.1714 58.3691 31.2668C58.4493 31.3622 58.5084 31.4735 58.5425 31.5933C58.5767 31.7131 58.5852 31.8388 58.5675 31.9622L58.1582 34.7238V34.7324C57.6034 37.7831 56.3312 40.4686 55.6215 41.798C55.4553 42.1108 55.2192 42.3812 54.9317 42.5881C54.6441 42.7951 54.3128 42.9331 53.9634 42.9914C52.9915 43.1541 51.7625 43.2398 50.4618 43.3307C48.9645 43.4345 47.4162 43.5427 46.0185 43.7764C44.4763 44.036 43.4058 44.4012 42.7463 44.9015C40.278 46.7622 33.0472 52.4559 30.0242 55.0505C27.8511 56.9173 24.6775 58.8585 22.9795 59.846C22.3811 60.1948 21.7007 60.3782 21.008 60.3774Z" fill="black"/>
<path d="M16.4808 51.8163L16.1909 51.0313C16.1156 50.8279 16.0472 50.6401 15.9823 50.4567C14.5864 46.5137 13.8525 42.6296 13.8005 38.9142C13.7482 35.84 14.1915 32.7775 15.1134 29.8443C15.8359 27.5632 16.8573 25.3879 18.1511 23.3751C19.0154 22.0169 20.0164 20.7508 21.1387 19.5965C21.3922 19.3369 21.6423 19.1032 21.8604 18.9128C22.0648 18.7337 22.3179 18.6194 22.5874 18.5845C22.8569 18.5495 23.1307 18.5954 23.3741 18.7164C24.8125 19.4269 27.0903 21.2132 30.1436 24.0259C32.4016 26.1073 34.2718 28.007 34.2908 28.0277L34.322 28.0598L34.3471 28.097C34.9901 29.0611 35.2428 30.0503 35.0974 31.0395C34.9797 31.7572 34.682 32.4334 34.232 33.0049C34.0433 33.2492 33.7971 33.443 33.5153 33.5691C33.2335 33.6951 32.925 33.7496 32.6171 33.7276L31.5465 33.6514C31.2286 33.628 30.9095 33.6773 30.6135 33.7956C30.3175 33.914 30.0523 34.0982 29.8381 34.3342C26.8515 37.6065 19.8041 45.3254 18.8772 46.2826C18.4514 46.7231 18.2861 47.2346 18.3848 47.8118C18.4025 47.8972 18.4247 47.9816 18.4514 48.0646C18.5622 48.4324 18.7292 48.9871 18.3121 49.5497L18.3 49.5652L16.4808 51.8163ZM22.7622 19.523C22.659 19.5227 22.5593 19.5603 22.4818 19.6286C22.3416 19.7506 22.1114 19.96 21.812 20.2638C19.1447 22.9657 10.9342 33.062 16.7924 49.9106L17.547 48.9741C17.6639 48.8123 17.6336 48.6686 17.5358 48.3346C17.4972 48.2149 17.466 48.0929 17.4423 47.9694C17.3781 47.6081 17.3893 47.2374 17.4752 46.8806C17.5948 46.4041 17.8406 45.9685 18.1866 45.6197C19.1317 44.64 26.8021 36.2417 29.1302 33.6903C29.4415 33.3491 29.8262 33.0829 30.2551 32.9115C30.6841 32.7402 31.1463 32.6683 31.6071 32.7011L32.6777 32.7773C32.8295 32.7881 32.9816 32.7612 33.1205 32.699C33.2594 32.6368 33.3808 32.5412 33.4739 32.4207C34.1091 31.6003 34.6388 30.2839 33.5769 28.6604C33.0455 28.1221 26.0994 21.1232 22.95 19.5671C22.8916 19.5385 22.8274 19.5234 22.7622 19.523Z" fill="white"/>
<path d="M56.8806 31.4565C56.7328 30.1262 56.4723 28.8109 56.1017 27.5248C55.5322 25.5048 54.4409 22.6376 52.4729 20.4489L52.4677 20.4428L52.4556 20.4298L53.1687 19.8024C53.1723 19.8057 53.1755 19.8095 53.1782 19.8136C54.1635 20.9327 54.9854 22.1856 55.6196 23.535C56.1943 24.7425 56.6626 25.9979 57.0191 27.2868C57.663 29.5776 57.8144 31.3033 57.8205 31.3751L56.8806 31.4565Z" fill="black"/>
<path d="M17.1006 53.6961C17.039 53.6961 16.9787 53.6781 16.9271 53.6442C16.8756 53.6104 16.8351 53.5622 16.8106 53.5056C16.7862 53.449 16.7788 53.3865 16.7894 53.3258C16.8 53.2651 16.8282 53.2088 16.8704 53.1638L50.9984 16.7285C51.0566 16.6706 51.135 16.6376 51.217 16.6363C51.2991 16.6351 51.3784 16.6657 51.4384 16.7218C51.4983 16.7779 51.5341 16.8551 51.5382 16.937C51.5424 17.019 51.5145 17.0994 51.4606 17.1612L17.3317 53.5966C17.3021 53.6282 17.2663 53.6533 17.2265 53.6705C17.1868 53.6876 17.1439 53.6963 17.1006 53.6961Z" fill="black"/>
<path d="M18.3971 59.576C18.3348 59.5763 18.2738 59.5582 18.2218 59.524C18.1697 59.4897 18.129 59.4408 18.1047 59.3835C18.0803 59.3261 18.0735 59.2629 18.085 59.2017C18.0966 59.1404 18.1259 59.084 18.1695 59.0394L39.4932 37.0493C40.3638 36.1764 41.398 35.4839 42.5366 35.0112C43.6752 34.5385 44.8958 34.295 46.1286 34.2946H53.298C53.379 34.2988 53.4553 34.334 53.5112 34.3928C53.567 34.4517 53.5982 34.5297 53.5982 34.6109C53.5982 34.692 53.567 34.7701 53.5112 34.8289C53.4553 34.8878 53.379 34.923 53.298 34.9272H46.1286C44.9788 34.9239 43.8398 35.1491 42.7776 35.5896C41.7155 36.0301 40.7515 36.6771 39.9415 37.4932L18.6204 59.4756C18.5917 59.5064 18.5572 59.5311 18.5189 59.5484C18.4805 59.5656 18.4391 59.575 18.3971 59.576Z" fill="black"/>
<path d="M44.3397 33.0447C44.2979 33.0447 44.2565 33.0365 44.2179 33.0204C44.1793 33.0044 44.1442 32.9809 44.1147 32.9513L40.9991 29.808C40.8792 29.6874 40.8105 29.5253 40.8072 29.3553C40.804 29.1854 40.8666 29.0207 40.9818 28.8958L45.9218 23.5187C46.1052 23.3199 46.3515 23.1903 46.6193 23.1518L47.9365 22.964C48.0343 22.9504 48.1338 22.9669 48.2219 23.0114C48.31 23.0559 48.3824 23.1262 48.4295 23.213C48.4765 23.2997 48.496 23.3988 48.4852 23.4969C48.4744 23.595 48.434 23.6875 48.3692 23.7619L43.8369 28.9633C43.7606 29.0501 43.7194 29.1623 43.7215 29.2779C43.7236 29.3935 43.7687 29.5041 43.8481 29.5881L46.1338 32.0218C46.2352 32.1304 46.3578 32.2172 46.4939 32.2767C46.6301 32.3363 46.7771 32.3673 46.9257 32.3679H48.8496C48.8925 32.3657 48.9354 32.3722 48.9758 32.3871C49.0161 32.402 49.053 32.4249 49.0842 32.4545C49.1153 32.4841 49.1402 32.5197 49.1572 32.5592C49.1741 32.5987 49.1829 32.6413 49.1829 32.6843C49.1829 32.7273 49.1741 32.7698 49.1572 32.8093C49.1402 32.8488 49.1153 32.8844 49.0842 32.914C49.053 32.9436 49.0161 32.9666 48.9758 32.9814C48.9354 32.9963 48.8925 33.0028 48.8496 33.0006H46.9257C46.6906 33 46.4581 32.9512 46.2426 32.8573C46.027 32.7633 45.833 32.6263 45.6725 32.4545L43.386 30.0174C43.1999 29.8191 43.0941 29.5588 43.0891 29.2869C43.0842 29.0151 43.1804 28.751 43.3592 28.5461L47.6301 23.646L46.7076 23.7775C46.5847 23.7957 46.4718 23.8552 46.3874 23.9463L41.4465 29.3242C41.4417 29.3293 41.4389 29.3361 41.4389 29.3432C41.4389 29.3503 41.4417 29.3571 41.4465 29.3622L44.5621 32.5056C44.606 32.55 44.6357 32.6064 44.6476 32.6677C44.6595 32.7289 44.653 32.7924 44.6289 32.85C44.6049 32.9076 44.5644 32.9568 44.5125 32.9914C44.4605 33.0261 44.3995 33.0446 44.3371 33.0447H44.3397Z" fill="black"/>
<path d="M36.3396 31.2931C36.2879 31.2932 36.2371 31.2806 36.1914 31.2565C36.1457 31.2324 36.1066 31.1975 36.0775 31.1548C36.0484 31.1122 36.0302 31.063 36.0244 31.0117C36.0187 30.9604 36.0256 30.9084 36.0445 30.8604C36.4097 29.9248 36.3759 29.0178 35.9441 28.1654C35.7497 27.777 35.4857 27.4277 35.1652 27.1346H35.1608L24.4146 18.0111C24.3454 17.9583 23.0827 17.0089 22.1532 17.6511C22.1191 17.6747 22.0807 17.6914 22.0401 17.7002C21.9996 17.709 21.9577 17.7097 21.9169 17.7023C21.876 17.6949 21.8371 17.6795 21.8022 17.6571C21.7673 17.6346 21.7372 17.6055 21.7135 17.5714C21.6658 17.5026 21.6474 17.4176 21.6623 17.3351C21.6772 17.2527 21.7243 17.1795 21.7932 17.1318C22.3574 16.7423 23.0645 16.6904 23.8408 16.9829C24.1881 17.1147 24.5148 17.2954 24.811 17.5195L24.8188 17.5256L35.5693 26.6491C35.952 26.9897 36.2675 27.3989 36.4997 27.8555C36.8632 28.5617 37.1817 29.6955 36.6373 31.0915C36.614 31.1513 36.573 31.2026 36.5198 31.2386C36.4667 31.2746 36.4038 31.2936 36.3396 31.2931Z" fill="black"/>
<path d="M37.7178 23.3675C37.6465 23.3675 37.5773 23.3435 37.5214 23.2991L32.8869 19.6097C32.542 19.3365 32.1152 19.1874 31.6753 19.1865H31.394C30.8298 19.1857 30.2831 18.9907 29.8457 18.6344L28.6895 17.6902C28.5788 17.6002 28.492 17.4844 28.4366 17.353C28.3811 17.2215 28.3589 17.0785 28.3717 16.9364C28.3845 16.7944 28.432 16.6577 28.5101 16.5383C28.5881 16.4189 28.6943 16.3205 28.8193 16.2518C29.9002 15.6598 32.1876 14.6308 35.3508 14.3842C37.1441 14.2504 38.9472 14.3743 40.7053 14.752C42.8395 15.2029 44.9971 16.0216 47.1192 17.1865C47.1598 17.2036 47.1963 17.2291 47.2265 17.2612C47.2568 17.2933 47.2799 17.3314 47.2946 17.3729C47.3092 17.4145 47.315 17.4587 47.3116 17.5026C47.3082 17.5466 47.2957 17.5893 47.2749 17.6282C47.254 17.667 47.2252 17.7011 47.1905 17.7281C47.1557 17.7552 47.1156 17.7748 47.0729 17.7855C47.0301 17.7962 46.9856 17.7979 46.9422 17.7904C46.8987 17.7829 46.8573 17.7665 46.8206 17.7421C43.0126 15.6503 39.5872 14.9796 36.765 14.9796C32.9336 14.9796 30.2109 16.2163 29.1291 16.8074C29.0948 16.8261 29.0656 16.8529 29.0441 16.8856C29.0226 16.9182 29.0095 16.9557 29.0059 16.9946C29.0023 17.0335 29.0083 17.0727 29.0235 17.1088C29.0386 17.1448 29.0624 17.1765 29.0928 17.2012L30.2481 18.1454C30.5722 18.4098 30.9775 18.5544 31.3957 18.5548H31.6753C32.2586 18.5554 32.8246 18.753 33.2815 19.1156L37.916 22.7998C37.9673 22.8407 38.0046 22.8966 38.0227 22.9597C38.0409 23.0227 38.039 23.0899 38.0174 23.1518C37.9957 23.2138 37.9553 23.2675 37.9018 23.3055C37.8483 23.3435 37.7843 23.364 37.7187 23.364L37.7178 23.3675Z" fill="black"/>
<path d="M16.0057 35.07C15.9925 35.0709 15.9792 35.0709 15.9659 35.07C15.9246 35.0649 15.8847 35.0516 15.8486 35.031C15.8124 35.0105 15.7807 34.9829 15.7552 34.95C15.7297 34.9171 15.7109 34.8795 15.7 34.8394C15.6891 34.7992 15.6862 34.7573 15.6916 34.716C15.9419 32.787 16.4216 30.8947 17.1204 29.0794C17.6951 27.5834 18.4015 26.1414 19.2313 24.7703C20.6558 22.4154 21.9358 21.0852 21.9894 21.0307C22.0178 20.9986 22.0524 20.9727 22.0911 20.9543C22.1298 20.936 22.1718 20.9257 22.2145 20.9241C22.2573 20.9224 22.3 20.9295 22.34 20.9448C22.38 20.9601 22.4164 20.9834 22.4472 21.0132C22.4779 21.043 22.5023 21.0787 22.5188 21.1182C22.5354 21.1577 22.5437 21.2001 22.5434 21.2429C22.5431 21.2857 22.5341 21.328 22.517 21.3673C22.4999 21.4065 22.475 21.4419 22.4438 21.4712C22.4265 21.4894 21.1456 22.8213 19.7609 25.1182C18.4852 27.236 16.8504 30.6372 16.319 34.7913C16.3101 34.8681 16.2732 34.939 16.2155 34.9904C16.1577 35.0417 16.083 35.0701 16.0057 35.07Z" fill="#FFFDFD"/>
<path d="M15.7623 39.6506C15.6884 39.6504 15.6168 39.6243 15.5601 39.5769C15.5033 39.5295 15.465 39.4637 15.4516 39.391C15.192 37.9612 15.4395 36.4355 15.4516 36.3714C15.4654 36.2887 15.5115 36.2148 15.5797 36.166C15.6135 36.1419 15.6517 36.1246 15.6922 36.1152C15.7327 36.1058 15.7746 36.1045 15.8155 36.1113C15.8565 36.1182 15.8957 36.133 15.931 36.155C15.9662 36.1769 15.9968 36.2057 16.021 36.2394C16.0451 36.2732 16.0624 36.3115 16.0717 36.3519C16.0811 36.3924 16.0824 36.4343 16.0756 36.4753C16.0756 36.4969 15.8359 37.9621 16.0756 39.2785C16.0838 39.3241 16.082 39.3709 16.0701 39.4157C16.0583 39.4605 16.0367 39.5022 16.007 39.5378C15.9773 39.5733 15.9401 39.602 15.8982 39.6216C15.8562 39.6412 15.8104 39.6514 15.7641 39.6515L15.7623 39.6506Z" fill="#FFFDFD"/>
<path d="M82.0649 46.0797V43.7491H101.437L82.0649 24.3769V20.5023H89.8142L116.935 47.6228V51.494H82.0649V46.0797ZM93.6879 20.5023H116.935V28.2507H101.437L93.6879 20.5023Z" fill="white"/>
<path d="M120.022 48.7739V47.6228L147.144 20.5023H154.892V24.3769L127.772 51.494H120.022V48.7739ZM135.52 47.6228L162.641 20.5023H170.391V24.3769L143.269 51.494H135.52V47.6228ZM162.641 36.0025L170.391 28.2533V51.494H162.641V36.0025Z" fill="white"/>
<path d="M173.478 29.7946V20.5023H181.224L208.345 47.6228V51.494H200.596L181.224 32.1253V39.8745H185.098L192.848 47.6228H181.224V51.494H173.478V29.7946Z" fill="white"/>
<path d="M211.437 34.063V28.2507L219.185 20.5023H246.306V24.3769L242.432 28.2507H223.059L219.185 32.1253V39.8745L211.437 47.6228V34.063ZM219.185 43.7491H242.432L246.306 47.6228V51.494H211.437L219.185 43.7491Z" fill="white"/>
</g>
<defs>
<clipPath id="clip0_222_166">
<rect width="246.306" height="72" fill="white"/>
</clipPath>
</defs>
</svg>
